USFL
nRows=282
nColumns=2
inDegrees=yes
endheader
time	tib_ant_r	
4.09147	 53.670566	
4.12474	 53.652098	
4.158	 53.638708	
4.19126	 53.629662	
4.22453	 53.637841	
4.25779	 53.652667	
4.29106	 53.701616	
4.32432	 53.727981	
4.35758	 53.751624	
4.39085	 53.742776	
4.42411	 53.766944	
4.45738	 53.791198	
4.49064	 53.805948	
4.5239	 53.787618	
4.55717	 53.831763	
4.59043	 53.867207	
4.6237	 53.856821	
4.65696	 53.836766	
4.69022	 53.800468	
4.72349	 53.818306	
4.75675	 53.809672	
4.79002	 53.805122	
4.82328	 53.785877	
4.85654	 53.782457	
4.88981	 53.785194	
4.92307	 53.792492	
4.95634	 53.817027	
4.9896	 53.792080	
5.02286	 53.790672	
5.05613	 53.788719	
5.08939	 53.781034	
5.12266	 53.756191	
5.15592	 53.789850	
5.18918	 53.832435	
5.22245	 53.857669	
5.25571	 53.830377	
5.28898	 53.820633	
5.32224	 53.843263	
5.3555	 53.842496	
5.38877	 53.844610	
5.42203	 53.829787	
5.4553	 53.837923	
5.48856	 53.846802	
5.52182	 53.849298	
5.55509	 53.858899	
5.58835	 53.855289	
5.62162	 53.863711	
5.65488	 53.832471	
5.68814	 53.770267	
5.72141	 53.819002	
5.75467	 53.756082	
5.78794	 53.697902	
5.8212	 53.764728	
5.85446	 53.803104	
5.88773	 53.772876	
5.92099	 53.765079	
5.95426	 53.740708	
5.98752	 53.671135	
6.02078	 53.576444	
6.05405	 53.536372	
6.08731	 53.549714	
6.12058	 53.462960	
6.15384	 53.392436	
6.1871	 53.422050	
6.22037	 53.315919	
6.25363	 53.150362	
6.2869	 53.107030	
6.32016	 52.981182	
6.35342	 53.008455	
6.38669	 52.925001	
6.41995	 52.826982	
6.45322	 52.800080	
6.48648	 52.738173	
6.51974	 52.608802	
6.55301	 52.608853	
6.58627	 52.547017	
6.61954	 52.399652	
6.6528	 52.253421	
6.68606	 52.073432	
6.71933	 52.110322	
6.75259	 52.141053	
6.78586	 52.070992	
6.81912	 52.048111	
6.85238	 51.975639	
6.88565	 51.793142	
6.91891	 51.772173	
6.95218	 51.670762	
6.98544	 51.465603	
7.0187	 51.459225	
7.05197	 51.496869	
7.08523	 51.481444	
7.1185	 51.455884	
7.15176	 51.401227	
7.18502	 51.349603	
7.21829	 51.288647	
7.25155	 51.212468	
7.28482	 51.223308	
7.31808	 51.173580	
7.35134	 50.996860	
7.38461	 50.846161	
7.41787	 50.746241	
7.45114	 50.680094	
7.4844	 50.539083	
7.51766	 50.464694	
7.55093	 50.428814	
7.58419	 50.397399	
7.61746	 50.373093	
7.65072	 50.330059	
7.68398	 50.131762	
7.71725	 50.129526	
7.75051	 50.067178	
7.78378	 50.017003	
7.81704	 50.012528	
7.8503	 50.020743	
7.88357	 50.046652	
7.91683	 50.062946	
7.9501	 50.063074	
7.98336	 50.133393	
8.01662	 50.154278	
8.04989	 50.194796	
8.08315	 50.204299	
8.11642	 50.177402	
8.14968	 50.121426	
8.18294	 50.100403	
8.21621	 50.004881	
8.24947	 49.971752	
8.28274	 49.937278	
8.316	 49.899432	
8.34926	 49.824969	
8.38253	 49.829076	
8.41579	 49.896272	
8.44906	 49.891126	
8.48232	 49.872090	
8.51558	 49.853508	
8.54885	 49.872027	
8.58211	 49.916424	
8.61538	 49.932636	
8.64864	 49.892860	
8.6819	 49.870250	
8.71517	 49.813358	
8.74843	 49.771918	
8.7817	 49.704878	
8.81496	 49.673015	
8.84822	 49.646094	
8.88149	 49.631962	
8.91475	 49.624577	
8.94802	 49.645018	
8.98128	 49.650803	
9.01454	 49.659615	
9.04781	 49.670792	
9.08107	 49.691014	
9.11434	 49.696626	
9.1476	 49.663250	
9.18086	 49.685502	
9.21413	 49.692259	
9.24739	 49.669683	
9.28066	 49.644024	
9.31392	 49.630591	
9.34718	 49.658913	
9.38045	 49.665311	
9.41371	 49.605696	
9.44698	 49.559203	
9.48024	 49.557884	
9.5135	 49.584707	
9.54677	 49.597437	
9.58003	 49.620670	
9.6133	 49.638551	
9.64656	 49.683361	
9.67982	 49.684428	
9.71309	 49.669315	
9.74635	 49.654623	
9.77962	 49.654964	
9.81288	 49.632694	
9.84614	 49.591381	
9.87941	 49.581634	
9.91267	 49.579350	
9.94594	 49.574015	
9.9792	 49.565306	
10.0125	 49.558073	
10.0457	 49.545297	
10.079	 49.527384	
10.1123	 49.507346	
10.1455	 49.490029	
10.1788	 49.491158	
10.212	 49.489772	
10.2453	 49.476378	
10.2786	 49.458177	
10.3118	 49.438143	
10.3451	 49.427677	
10.3784	 49.422513	
10.4116	 49.411517	
10.4449	 49.399831	
10.4782	 49.399500	
10.5114	 49.383384	
10.5447	 49.378245	
10.578	 49.330788	
10.6112	 49.317445	
10.6445	 49.333794	
10.6777	 49.337573	
10.711	 49.350490	
10.7443	 49.341343	
10.7775	 49.317305	
10.8108	 49.308490	
10.8441	 49.311202	
10.8773	 49.328972	
10.9106	 49.328371	
10.9439	 49.357900	
10.9771	 49.366132	
11.0104	 49.356488	
11.0436	 49.346563	
11.0769	 49.348811	
11.1102	 49.356255	
11.1434	 49.354902	
11.1767	 49.339093	
11.21	 49.326630	
11.2432	 49.284128	
11.2765	 49.254333	
11.3098	 49.249074	
11.343	 49.263196	
11.3763	 49.276413	
11.4096	 49.315744	
11.4428	 49.372240	
11.4761	 49.404772	
11.5093	 49.445930	
11.5426	 49.510415	
11.5759	 49.572621	
11.6091	 49.607296	
11.6424	 49.788631	
11.6757	 49.989755	
11.7089	 50.138015	
11.7422	 50.213557	
11.7755	 50.398997	
11.8087	 50.510493	
11.842	 50.620975	
11.8752	 50.807358	
11.9085	 50.913267	
11.9418	 50.973948	
11.975	 51.082996	
12.0083	 51.257940	
12.0416	 51.361608	
12.0748	 51.427729	
12.1081	 51.453919	
12.1414	 51.410227	
12.1746	 51.396286	
12.2079	 51.423195	
12.2412	 51.416656	
12.2744	 51.445481	
12.3077	 51.485160	
12.3409	 51.626356	
12.3742	 51.783564	
12.4075	 51.872930	
12.4407	 51.954759	
12.474	 51.999477	
12.5073	 52.105829	
12.5405	 52.140816	
12.5738	 52.165462	
12.6071	 52.247062	
12.6403	 52.339955	
12.6736	 52.371932	
12.7068	 52.466398	
12.7401	 52.487180	
12.7734	 52.564638	
12.8066	 52.631995	
12.8399	 52.660314	
12.8732	 52.704503	
12.9064	 52.679802	
12.9397	 52.682380	
12.973	 52.701870	
13.0062	 52.739041	
13.0395	 52.773508	
13.0728	 52.861420	
13.106	 52.857461	
13.1393	 52.874189	
13.1725	 52.877835	
13.2058	 52.886503	
13.2391	 52.918641	
13.2723	 52.949535	
13.3056	 52.948194	
13.3389	 52.960382	
13.3721	 52.983285	
13.4054	 52.998741	
13.4387	 53.055345	
